<?xml version="1.0" encoding="UTF-8" standalone="no"?>
<!DOCTYPE svg PUBLIC "-//W3C//DTD SVG 1.1//EN"
 "http://www.w3.org/Graphics/SVG/1.1/DTD/svg11.dtd">
<!-- Generated by graphviz version 2.47.0 (20210316.0004)
 -->
<!-- Title: dependencies Pages: 1 -->
<svg width="1630pt" height="211pt"
 viewBox="0.00 0.00 1630.00 211.00" xmlns="http://www.w3.org/2000/svg" xmlns:xlink="http://www.w3.org/1999/xlink">
<g id="graph0" class="graph" transform="scale(1 1) rotate(0) translate(4 207)">
<title>dependencies</title>
<polygon fill="white" stroke="transparent" points="-4,4 -4,-207 1626,-207 1626,4 -4,4"/>
<text text-anchor="start" x="790.01" y="-42.4" font-family="Times-12" font-weight="bold" font-size="14.00">Legend</text>
<polygon fill="#ffffb3" stroke="transparent" points="577,-10 577,-30 597,-30 597,-10 577,-10"/>
<text text-anchor="start" x="600.63" y="-15.4" font-family="Times-12" font-size="14.00"> &#160;Declarations</text>
<polygon fill="#8dd3c7" stroke="transparent" points="690,-10 690,-30 710,-30 710,-10 690,-10"/>
<text text-anchor="start" x="713.73" y="-15.4" font-family="Times-12" font-size="14.00"> &#160;Module</text>
<polygon fill="#80b1d3" stroke="transparent" points="776,-10 776,-30 796,-30 796,-10 776,-10"/>
<text text-anchor="start" x="799.78" y="-15.4" font-family="Times-12" font-size="14.00"> &#160;Bootstrap</text>
<polygon fill="#fdb462" stroke="transparent" points="873,-10 873,-30 893,-30 893,-10 873,-10"/>
<text text-anchor="start" x="896.67" y="-15.4" font-family="Times-12" font-size="14.00"> &#160;Providers</text>
<polygon fill="#fb8072" stroke="transparent" points="969,-10 969,-30 989,-30 989,-10 969,-10"/>
<text text-anchor="start" x="992.73" y="-15.4" font-family="Times-12" font-size="14.00"> &#160;Exports</text>
<g id="clust1" class="cluster">
<title>cluster_AdminModule</title>
<polygon fill="none" stroke="black" stroke-dasharray="1,5" points="8,-70 8,-195 1614,-195 1614,-70 8,-70"/>
</g>
<g id="clust2" class="cluster">
<title>cluster_AdminModule_declarations</title>
<polygon fill="none" stroke="black" points="184,-78 184,-130 1606,-130 1606,-78 184,-78"/>
</g>
<g id="clust11" class="cluster">
<title>cluster_AdminModule_imports</title>
<polygon fill="none" stroke="black" points="16,-78 16,-130 176,-130 176,-78 16,-78"/>
</g>
<!-- AheaderComponent -->
<g id="node1" class="node">
<title>AheaderComponent</title>
<polygon fill="#ffffb3" stroke="black" points="1598.24,-122 1469.76,-122 1469.76,-86 1598.24,-86 1598.24,-122"/>
<text text-anchor="middle" x="1534" y="-99.8" font-family="Times,serif" font-size="14.00">AheaderComponent</text>
</g>
<!-- AdminModule -->
<g id="node9" class="node">
<title>AdminModule</title>
<polygon fill="#8dd3c7" stroke="black" points="889.44,-187 886.44,-191 865.44,-191 862.44,-187 790.56,-187 790.56,-151 889.44,-151 889.44,-187"/>
<text text-anchor="middle" x="840" y="-164.8" font-family="Times,serif" font-size="14.00">AdminModule</text>
</g>
<!-- AheaderComponent&#45;&gt;AdminModule -->
<g id="edge1" class="edge">
<title>AheaderComponent&#45;&gt;AdminModule</title>
<path fill="none" stroke="black" d="M1534,-122.01C1534,-144.49 1534,-180 1534,-180 1534,-180 899.35,-180 899.35,-180"/>
<polygon fill="black" stroke="black" points="899.35,-176.5 889.35,-180 899.35,-183.5 899.35,-176.5"/>
</g>
<!-- AlayoutComponent -->
<g id="node2" class="node">
<title>AlayoutComponent</title>
<polygon fill="#ffffb3" stroke="black" points="1451.44,-122 1324.56,-122 1324.56,-86 1451.44,-86 1451.44,-122"/>
<text text-anchor="middle" x="1388" y="-99.8" font-family="Times,serif" font-size="14.00">AlayoutComponent</text>
</g>
<!-- AlayoutComponent&#45;&gt;AdminModule -->
<g id="edge2" class="edge">
<title>AlayoutComponent&#45;&gt;AdminModule</title>
<path fill="none" stroke="black" d="M1388,-122.13C1388,-142.57 1388,-173 1388,-173 1388,-173 899.6,-173 899.6,-173"/>
<polygon fill="black" stroke="black" points="899.6,-169.5 889.6,-173 899.6,-176.5 899.6,-169.5"/>
</g>
<!-- CGestionProgrammesComponent -->
<g id="node3" class="node">
<title>CGestionProgrammesComponent</title>
<polygon fill="#ffffb3" stroke="black" points="1306.47,-122 1101.53,-122 1101.53,-86 1306.47,-86 1306.47,-122"/>
<text text-anchor="middle" x="1204" y="-99.8" font-family="Times,serif" font-size="14.00">CGestionProgrammesComponent</text>
</g>
<!-- CGestionProgrammesComponent&#45;&gt;AdminModule -->
<g id="edge3" class="edge">
<title>CGestionProgrammesComponent&#45;&gt;AdminModule</title>
<path fill="none" stroke="black" d="M1204,-122.27C1204,-140.56 1204,-166 1204,-166 1204,-166 899.47,-166 899.47,-166"/>
<polygon fill="black" stroke="black" points="899.47,-162.5 889.47,-166 899.47,-169.5 899.47,-162.5"/>
</g>
<!-- CIndexComponent -->
<g id="node4" class="node">
<title>CIndexComponent</title>
<polygon fill="#ffffb3" stroke="black" points="1083.05,-122 960.95,-122 960.95,-86 1083.05,-86 1083.05,-122"/>
<text text-anchor="middle" x="1022" y="-99.8" font-family="Times,serif" font-size="14.00">CIndexComponent</text>
</g>
<!-- CIndexComponent&#45;&gt;AdminModule -->
<g id="edge4" class="edge">
<title>CIndexComponent&#45;&gt;AdminModule</title>
<path fill="none" stroke="black" d="M1022,-122.01C1022,-138.05 1022,-159 1022,-159 1022,-159 899.25,-159 899.25,-159"/>
<polygon fill="black" stroke="black" points="899.25,-155.5 889.25,-159 899.25,-162.5 899.25,-155.5"/>
</g>
<!-- CSuiviEnseignementsComponent -->
<g id="node5" class="node">
<title>CSuiviEnseignementsComponent</title>
<polygon fill="#ffffb3" stroke="black" points="942.49,-122 737.51,-122 737.51,-86 942.49,-86 942.49,-122"/>
<text text-anchor="middle" x="840" y="-99.8" font-family="Times,serif" font-size="14.00">CSuiviEnseignementsComponent</text>
</g>
<!-- CSuiviEnseignementsComponent&#45;&gt;AdminModule -->
<g id="edge5" class="edge">
<title>CSuiviEnseignementsComponent&#45;&gt;AdminModule</title>
<path fill="none" stroke="black" d="M840,-122.11C840,-122.11 840,-140.99 840,-140.99"/>
<polygon fill="black" stroke="black" points="836.5,-140.99 840,-150.99 843.5,-140.99 836.5,-140.99"/>
</g>
<!-- CVerificationContenusComponent -->
<g id="node6" class="node">
<title>CVerificationContenusComponent</title>
<polygon fill="#ffffb3" stroke="black" points="719.69,-122 508.31,-122 508.31,-86 719.69,-86 719.69,-122"/>
<text text-anchor="middle" x="614" y="-99.8" font-family="Times,serif" font-size="14.00">CVerificationContenusComponent</text>
</g>
<!-- CVerificationContenusComponent&#45;&gt;AdminModule -->
<g id="edge6" class="edge">
<title>CVerificationContenusComponent&#45;&gt;AdminModule</title>
<path fill="none" stroke="black" d="M614,-122.01C614,-138.05 614,-159 614,-159 614,-159 780.68,-159 780.68,-159"/>
<polygon fill="black" stroke="black" points="780.68,-162.5 790.68,-159 780.68,-155.5 780.68,-162.5"/>
</g>
<!-- DashboardComponent -->
<g id="node7" class="node">
<title>DashboardComponent</title>
<polygon fill="#ffffb3" stroke="black" points="489.97,-122 348.03,-122 348.03,-86 489.97,-86 489.97,-122"/>
<text text-anchor="middle" x="419" y="-99.8" font-family="Times,serif" font-size="14.00">DashboardComponent</text>
</g>
<!-- DashboardComponent&#45;&gt;AdminModule -->
<g id="edge7" class="edge">
<title>DashboardComponent&#45;&gt;AdminModule</title>
<path fill="none" stroke="black" d="M419,-122.27C419,-140.56 419,-166 419,-166 419,-166 780.47,-166 780.47,-166"/>
<polygon fill="black" stroke="black" points="780.47,-169.5 790.47,-166 780.47,-162.5 780.47,-169.5"/>
</g>
<!-- SidemenuComponent -->
<g id="node8" class="node">
<title>SidemenuComponent</title>
<polygon fill="#ffffb3" stroke="black" points="329.83,-122 192.17,-122 192.17,-86 329.83,-86 329.83,-122"/>
<text text-anchor="middle" x="261" y="-99.8" font-family="Times,serif" font-size="14.00">SidemenuComponent</text>
</g>
<!-- SidemenuComponent&#45;&gt;AdminModule -->
<g id="edge8" class="edge">
<title>SidemenuComponent&#45;&gt;AdminModule</title>
<path fill="none" stroke="black" d="M261,-122.13C261,-142.57 261,-173 261,-173 261,-173 780.63,-173 780.63,-173"/>
<polygon fill="black" stroke="black" points="780.63,-176.5 790.63,-173 780.63,-169.5 780.63,-176.5"/>
</g>
<!-- AdminRoutingModule -->
<g id="node10" class="node">
<title>AdminRoutingModule</title>
<polygon fill="#8dd3c7" stroke="black" points="167.56,-122 164.56,-126 143.56,-126 140.56,-122 24.44,-122 24.44,-86 167.56,-86 167.56,-122"/>
<text text-anchor="middle" x="96" y="-99.8" font-family="Times,serif" font-size="14.00">AdminRoutingModule</text>
</g>
<!-- AdminRoutingModule&#45;&gt;AdminModule -->
<g id="edge9" class="edge">
<title>AdminRoutingModule&#45;&gt;AdminModule</title>
<path fill="none" stroke="black" d="M96,-122.01C96,-144.49 96,-180 96,-180 96,-180 780.61,-180 780.61,-180"/>
<polygon fill="black" stroke="black" points="780.61,-183.5 790.61,-180 780.61,-176.5 780.61,-183.5"/>
</g>
</g>
</svg>
