<?xml version="1.0" encoding="UTF-8" standalone="no"?>
<!DOCTYPE svg PUBLIC "-//W3C//DTD SVG 1.1//EN"
 "http://www.w3.org/Graphics/SVG/1.1/DTD/svg11.dtd">
<!-- Generated by graphviz version 2.47.0 (20210316.0004)
 -->
<!-- Title: dependencies Pages: 1 -->
<svg width="4305pt" height="284pt"
 viewBox="0.00 0.00 4305.00 284.00" xmlns="http://www.w3.org/2000/svg" xmlns:xlink="http://www.w3.org/1999/xlink">
<g id="graph0" class="graph" transform="scale(1 1) rotate(0) translate(4 280)">
<title>dependencies</title>
<polygon fill="white" stroke="transparent" points="-4,4 -4,-280 4301,-280 4301,4 -4,4"/>
<text text-anchor="start" x="2127.51" y="-42.4" font-family="Times-12" font-weight="bold" font-size="14.00">Legend</text>
<polygon fill="#ffffb3" stroke="transparent" points="1914.5,-10 1914.5,-30 1934.5,-30 1934.5,-10 1914.5,-10"/>
<text text-anchor="start" x="1938.13" y="-15.4" font-family="Times-12" font-size="14.00"> &#160;Declarations</text>
<polygon fill="#8dd3c7" stroke="transparent" points="2027.5,-10 2027.5,-30 2047.5,-30 2047.5,-10 2027.5,-10"/>
<text text-anchor="start" x="2051.23" y="-15.4" font-family="Times-12" font-size="14.00"> &#160;Module</text>
<polygon fill="#80b1d3" stroke="transparent" points="2113.5,-10 2113.5,-30 2133.5,-30 2133.5,-10 2113.5,-10"/>
<text text-anchor="start" x="2137.28" y="-15.4" font-family="Times-12" font-size="14.00"> &#160;Bootstrap</text>
<polygon fill="#fdb462" stroke="transparent" points="2210.5,-10 2210.5,-30 2230.5,-30 2230.5,-10 2210.5,-10"/>
<text text-anchor="start" x="2234.17" y="-15.4" font-family="Times-12" font-size="14.00"> &#160;Providers</text>
<polygon fill="#fb8072" stroke="transparent" points="2306.5,-10 2306.5,-30 2326.5,-30 2326.5,-10 2306.5,-10"/>
<text text-anchor="start" x="2330.23" y="-15.4" font-family="Times-12" font-size="14.00"> &#160;Exports</text>
<g id="clust1" class="cluster">
<title>cluster_AdminModule</title>
<polygon fill="none" stroke="black" stroke-dasharray="1,5" points="8,-70 8,-195 1614,-195 1614,-70 8,-70"/>
</g>
<g id="clust2" class="cluster">
<title>cluster_AdminModule_declarations</title>
<polygon fill="none" stroke="black" points="184,-78 184,-130 1606,-130 1606,-78 184,-78"/>
</g>
<g id="clust11" class="cluster">
<title>cluster_AdminModule_imports</title>
<polygon fill="none" stroke="black" points="16,-78 16,-130 176,-130 176,-78 16,-78"/>
</g>
<g id="clust21" class="cluster">
<title>cluster_AppModule</title>
<polygon fill="none" stroke="black" stroke-dasharray="1,5" points="1622,-70 1622,-268 2040,-268 2040,-70 1622,-70"/>
</g>
<g id="clust22" class="cluster">
<title>cluster_AppModule_declarations</title>
<polygon fill="none" stroke="black" points="1782,-78 1782,-130 2032,-130 2032,-78 1782,-78"/>
</g>
<g id="clust25" class="cluster">
<title>cluster_AppModule_imports</title>
<polygon fill="none" stroke="black" points="1630,-78 1630,-130 1774,-130 1774,-78 1630,-78"/>
</g>
<g id="clust27" class="cluster">
<title>cluster_AppModule_bootstrap</title>
<polygon fill="none" stroke="black" points="1783,-208 1783,-260 1907,-260 1907,-208 1783,-208"/>
</g>
<g id="clust35" class="cluster">
<title>cluster_AuthModule</title>
<polygon fill="none" stroke="black" stroke-dasharray="1,5" points="2048,-70 2048,-195 2490,-195 2490,-70 2048,-70"/>
</g>
<g id="clust36" class="cluster">
<title>cluster_AuthModule_declarations</title>
<polygon fill="none" stroke="black" points="2212,-78 2212,-130 2482,-130 2482,-78 2212,-78"/>
</g>
<g id="clust39" class="cluster">
<title>cluster_AuthModule_imports</title>
<polygon fill="none" stroke="black" points="2056,-78 2056,-130 2204,-130 2204,-78 2056,-78"/>
</g>
<g id="clust49" class="cluster">
<title>cluster_GestionEnseignantsModule</title>
<polygon fill="none" stroke="black" stroke-dasharray="1,5" points="2498,-70 2498,-195 2746,-195 2746,-70 2498,-70"/>
</g>
<g id="clust51" class="cluster">
<title>cluster_GestionEnseignantsModule_imports</title>
<polygon fill="none" stroke="black" points="2506,-78 2506,-130 2738,-130 2738,-78 2506,-78"/>
</g>
<g id="clust67" class="cluster">
<title>cluster_PulicModule</title>
<polygon fill="none" stroke="black" stroke-dasharray="1,5" points="2754,-70 2754,-195 3557,-195 3557,-70 2754,-70"/>
</g>
<g id="clust68" class="cluster">
<title>cluster_PulicModule_declarations</title>
<polygon fill="none" stroke="black" points="2926,-78 2926,-130 3549,-130 3549,-78 2926,-78"/>
</g>
<g id="clust73" class="cluster">
<title>cluster_PulicModule_imports</title>
<polygon fill="none" stroke="black" points="2762,-78 2762,-130 2918,-130 2918,-78 2762,-78"/>
</g>
<g id="clust77" class="cluster">
<title>cluster_UserModule</title>
<polygon fill="none" stroke="black" stroke-dasharray="1,5" points="3565,-70 3565,-195 4289,-195 4289,-70 3565,-70"/>
</g>
<g id="clust78" class="cluster">
<title>cluster_UserModule_declarations</title>
<polygon fill="none" stroke="black" points="3729,-78 3729,-130 4281,-130 4281,-78 3729,-78"/>
</g>
<g id="clust83" class="cluster">
<title>cluster_UserModule_imports</title>
<polygon fill="none" stroke="black" points="3573,-78 3573,-130 3721,-130 3721,-78 3573,-78"/>
</g>
<!-- AheaderComponent -->
<g id="node1" class="node">
<title>AheaderComponent</title>
<polygon fill="#ffffb3" stroke="black" points="1598.24,-122 1469.76,-122 1469.76,-86 1598.24,-86 1598.24,-122"/>
<text text-anchor="middle" x="1534" y="-99.8" font-family="Times,serif" font-size="14.00">AheaderComponent</text>
</g>
<!-- AdminModule -->
<g id="node9" class="node">
<title>AdminModule</title>
<polygon fill="#8dd3c7" stroke="black" points="889.44,-187 886.44,-191 865.44,-191 862.44,-187 790.56,-187 790.56,-151 889.44,-151 889.44,-187"/>
<text text-anchor="middle" x="840" y="-164.8" font-family="Times,serif" font-size="14.00">AdminModule</text>
</g>
<!-- AheaderComponent&#45;&gt;AdminModule -->
<g id="edge1" class="edge">
<title>AheaderComponent&#45;&gt;AdminModule</title>
<path fill="none" stroke="black" d="M1534,-122.28C1534,-143.32 1534,-175 1534,-175 1534,-175 899.35,-175 899.35,-175"/>
<polygon fill="black" stroke="black" points="899.35,-171.5 889.35,-175 899.35,-178.5 899.35,-171.5"/>
</g>
<!-- AlayoutComponent -->
<g id="node2" class="node">
<title>AlayoutComponent</title>
<polygon fill="#ffffb3" stroke="black" points="1451.44,-122 1324.56,-122 1324.56,-86 1451.44,-86 1451.44,-122"/>
<text text-anchor="middle" x="1388" y="-99.8" font-family="Times,serif" font-size="14.00">AlayoutComponent</text>
</g>
<!-- AlayoutComponent&#45;&gt;AdminModule -->
<g id="edge2" class="edge">
<title>AlayoutComponent&#45;&gt;AdminModule</title>
<path fill="none" stroke="black" d="M1388,-122.11C1388,-141.34 1388,-169 1388,-169 1388,-169 899.6,-169 899.6,-169"/>
<polygon fill="black" stroke="black" points="899.6,-165.5 889.6,-169 899.6,-172.5 899.6,-165.5"/>
</g>
<!-- CGestionProgrammesComponent -->
<g id="node3" class="node">
<title>CGestionProgrammesComponent</title>
<polygon fill="#ffffb3" stroke="black" points="1306.47,-122 1101.53,-122 1101.53,-86 1306.47,-86 1306.47,-122"/>
<text text-anchor="middle" x="1204" y="-99.8" font-family="Times,serif" font-size="14.00">CGestionProgrammesComponent</text>
</g>
<!-- CGestionProgrammesComponent&#45;&gt;AdminModule -->
<g id="edge3" class="edge">
<title>CGestionProgrammesComponent&#45;&gt;AdminModule</title>
<path fill="none" stroke="black" d="M1204,-122.02C1204,-139.37 1204,-163 1204,-163 1204,-163 899.47,-163 899.47,-163"/>
<polygon fill="black" stroke="black" points="899.47,-159.5 889.47,-163 899.47,-166.5 899.47,-159.5"/>
</g>
<!-- CIndexComponent -->
<g id="node4" class="node">
<title>CIndexComponent</title>
<polygon fill="#ffffb3" stroke="black" points="1083.05,-122 960.95,-122 960.95,-86 1083.05,-86 1083.05,-122"/>
<text text-anchor="middle" x="1022" y="-99.8" font-family="Times,serif" font-size="14.00">CIndexComponent</text>
</g>
<!-- CIndexComponent&#45;&gt;AdminModule -->
<g id="edge4" class="edge">
<title>CIndexComponent&#45;&gt;AdminModule</title>
<path fill="none" stroke="black" d="M1022,-122.24C1022,-137.57 1022,-157 1022,-157 1022,-157 899.25,-157 899.25,-157"/>
<polygon fill="black" stroke="black" points="899.25,-153.5 889.25,-157 899.25,-160.5 899.25,-153.5"/>
</g>
<!-- CSuiviEnseignementsComponent -->
<g id="node5" class="node">
<title>CSuiviEnseignementsComponent</title>
<polygon fill="#ffffb3" stroke="black" points="942.49,-122 737.51,-122 737.51,-86 942.49,-86 942.49,-122"/>
<text text-anchor="middle" x="840" y="-99.8" font-family="Times,serif" font-size="14.00">CSuiviEnseignementsComponent</text>
</g>
<!-- CSuiviEnseignementsComponent&#45;&gt;AdminModule -->
<g id="edge5" class="edge">
<title>CSuiviEnseignementsComponent&#45;&gt;AdminModule</title>
<path fill="none" stroke="black" d="M840,-122.11C840,-122.11 840,-140.99 840,-140.99"/>
<polygon fill="black" stroke="black" points="836.5,-140.99 840,-150.99 843.5,-140.99 836.5,-140.99"/>
</g>
<!-- CVerificationContenusComponent -->
<g id="node6" class="node">
<title>CVerificationContenusComponent</title>
<polygon fill="#ffffb3" stroke="black" points="719.69,-122 508.31,-122 508.31,-86 719.69,-86 719.69,-122"/>
<text text-anchor="middle" x="614" y="-99.8" font-family="Times,serif" font-size="14.00">CVerificationContenusComponent</text>
</g>
<!-- CVerificationContenusComponent&#45;&gt;AdminModule -->
<g id="edge6" class="edge">
<title>CVerificationContenusComponent&#45;&gt;AdminModule</title>
<path fill="none" stroke="black" d="M614,-122.01C614,-138.05 614,-159 614,-159 614,-159 780.68,-159 780.68,-159"/>
<polygon fill="black" stroke="black" points="780.68,-162.5 790.68,-159 780.68,-155.5 780.68,-162.5"/>
</g>
<!-- DashboardComponent -->
<g id="node7" class="node">
<title>DashboardComponent</title>
<polygon fill="#ffffb3" stroke="black" points="489.97,-122 348.03,-122 348.03,-86 489.97,-86 489.97,-122"/>
<text text-anchor="middle" x="419" y="-99.8" font-family="Times,serif" font-size="14.00">DashboardComponent</text>
</g>
<!-- DashboardComponent&#45;&gt;AdminModule -->
<g id="edge7" class="edge">
<title>DashboardComponent&#45;&gt;AdminModule</title>
<path fill="none" stroke="black" d="M419,-122.27C419,-140.56 419,-166 419,-166 419,-166 780.47,-166 780.47,-166"/>
<polygon fill="black" stroke="black" points="780.47,-169.5 790.47,-166 780.47,-162.5 780.47,-169.5"/>
</g>
<!-- SidemenuComponent -->
<g id="node8" class="node">
<title>SidemenuComponent</title>
<polygon fill="#ffffb3" stroke="black" points="329.83,-122 192.17,-122 192.17,-86 329.83,-86 329.83,-122"/>
<text text-anchor="middle" x="261" y="-99.8" font-family="Times,serif" font-size="14.00">SidemenuComponent</text>
</g>
<!-- SidemenuComponent&#45;&gt;AdminModule -->
<g id="edge8" class="edge">
<title>SidemenuComponent&#45;&gt;AdminModule</title>
<path fill="none" stroke="black" d="M261,-122.13C261,-142.57 261,-173 261,-173 261,-173 780.63,-173 780.63,-173"/>
<polygon fill="black" stroke="black" points="780.63,-176.5 790.63,-173 780.63,-169.5 780.63,-176.5"/>
</g>
<!-- AdminRoutingModule -->
<g id="node10" class="node">
<title>AdminRoutingModule</title>
<polygon fill="#8dd3c7" stroke="black" points="167.56,-122 164.56,-126 143.56,-126 140.56,-122 24.44,-122 24.44,-86 167.56,-86 167.56,-122"/>
<text text-anchor="middle" x="96" y="-99.8" font-family="Times,serif" font-size="14.00">AdminRoutingModule</text>
</g>
<!-- AdminRoutingModule&#45;&gt;AdminModule -->
<g id="edge9" class="edge">
<title>AdminRoutingModule&#45;&gt;AdminModule</title>
<path fill="none" stroke="black" d="M96,-122.01C96,-144.49 96,-180 96,-180 96,-180 780.61,-180 780.61,-180"/>
<polygon fill="black" stroke="black" points="780.61,-183.5 790.61,-180 780.61,-176.5 780.61,-183.5"/>
</g>
<!-- AppComponent -->
<g id="node11" class="node">
<title>AppComponent</title>
<polygon fill="#ffffb3" stroke="black" points="2023.94,-122 1918.06,-122 1918.06,-86 2023.94,-86 2023.94,-122"/>
<text text-anchor="middle" x="1971" y="-99.8" font-family="Times,serif" font-size="14.00">AppComponent</text>
</g>
<!-- AppModule -->
<g id="node13" class="node">
<title>AppModule</title>
<polygon fill="#8dd3c7" stroke="black" points="1886.66,-187 1883.66,-191 1862.66,-191 1859.66,-187 1803.34,-187 1803.34,-151 1886.66,-151 1886.66,-187"/>
<text text-anchor="middle" x="1845" y="-164.8" font-family="Times,serif" font-size="14.00">AppModule</text>
</g>
<!-- AppComponent&#45;&gt;AppModule -->
<g id="edge10" class="edge">
<title>AppComponent&#45;&gt;AppModule</title>
<path fill="none" stroke="black" d="M1971,-122.28C1971,-143.32 1971,-175 1971,-175 1971,-175 1896.96,-175 1896.96,-175"/>
<polygon fill="black" stroke="black" points="1896.96,-171.5 1886.96,-175 1896.96,-178.5 1896.96,-171.5"/>
</g>
<!-- ErrorComponent -->
<g id="node12" class="node">
<title>ErrorComponent</title>
<polygon fill="#ffffb3" stroke="black" points="1900.37,-122 1789.63,-122 1789.63,-86 1900.37,-86 1900.37,-122"/>
<text text-anchor="middle" x="1845" y="-99.8" font-family="Times,serif" font-size="14.00">ErrorComponent</text>
</g>
<!-- ErrorComponent&#45;&gt;AppModule -->
<g id="edge11" class="edge">
<title>ErrorComponent&#45;&gt;AppModule</title>
<path fill="none" stroke="black" d="M1845,-122.11C1845,-122.11 1845,-140.99 1845,-140.99"/>
<polygon fill="black" stroke="black" points="1841.5,-140.99 1845,-150.99 1848.5,-140.99 1841.5,-140.99"/>
</g>
<!-- AppComponent  -->
<g id="node15" class="node">
<title>AppComponent </title>
<polygon fill="#80b1d3" stroke="black" points="1899.44,-252 1790.56,-252 1790.56,-216 1899.44,-216 1899.44,-252"/>
<text text-anchor="middle" x="1845" y="-229.8" font-family="Times,serif" font-size="14.00">AppComponent </text>
</g>
<!-- AppModule&#45;&gt;AppComponent  -->
<g id="edge13" class="edge">
<title>AppModule&#45;&gt;AppComponent </title>
<path fill="none" stroke="black" stroke-dasharray="1,5" d="M1845,-187.11C1845,-187.11 1845,-205.99 1845,-205.99"/>
<polygon fill="black" stroke="black" points="1841.5,-205.99 1845,-215.99 1848.5,-205.99 1841.5,-205.99"/>
</g>
<!-- AppRoutingModule -->
<g id="node14" class="node">
<title>AppRoutingModule</title>
<polygon fill="#8dd3c7" stroke="black" points="1766.27,-122 1763.27,-126 1742.27,-126 1739.27,-122 1637.73,-122 1637.73,-86 1766.27,-86 1766.27,-122"/>
<text text-anchor="middle" x="1702" y="-99.8" font-family="Times,serif" font-size="14.00">AppRoutingModule</text>
</g>
<!-- AppRoutingModule&#45;&gt;AppModule -->
<g id="edge12" class="edge">
<title>AppRoutingModule&#45;&gt;AppModule</title>
<path fill="none" stroke="black" d="M1702,-122.25C1702,-145.02 1702,-181 1702,-181 1702,-181 1793.25,-181 1793.25,-181"/>
<polygon fill="black" stroke="black" points="1793.25,-184.5 1803.25,-181 1793.25,-177.5 1793.25,-184.5"/>
</g>
<!-- LoginComponent -->
<g id="node16" class="node">
<title>LoginComponent</title>
<polygon fill="#ffffb3" stroke="black" points="2474.28,-122 2359.72,-122 2359.72,-86 2474.28,-86 2474.28,-122"/>
<text text-anchor="middle" x="2417" y="-99.8" font-family="Times,serif" font-size="14.00">LoginComponent</text>
</g>
<!-- AuthModule -->
<g id="node18" class="node">
<title>AuthModule</title>
<polygon fill="#8dd3c7" stroke="black" points="2324.55,-187 2321.55,-191 2300.55,-191 2297.55,-187 2237.45,-187 2237.45,-151 2324.55,-151 2324.55,-187"/>
<text text-anchor="middle" x="2281" y="-164.8" font-family="Times,serif" font-size="14.00">AuthModule</text>
</g>
<!-- LoginComponent&#45;&gt;AuthModule -->
<g id="edge14" class="edge">
<title>LoginComponent&#45;&gt;AuthModule</title>
<path fill="none" stroke="black" d="M2417,-122.11C2417,-141.34 2417,-169 2417,-169 2417,-169 2334.78,-169 2334.78,-169"/>
<polygon fill="black" stroke="black" points="2334.78,-165.5 2324.78,-169 2334.78,-172.5 2334.78,-165.5"/>
</g>
<!-- LogoutComponent -->
<g id="node17" class="node">
<title>LogoutComponent</title>
<polygon fill="#ffffb3" stroke="black" points="2341.78,-122 2220.22,-122 2220.22,-86 2341.78,-86 2341.78,-122"/>
<text text-anchor="middle" x="2281" y="-99.8" font-family="Times,serif" font-size="14.00">LogoutComponent</text>
</g>
<!-- LogoutComponent&#45;&gt;AuthModule -->
<g id="edge15" class="edge">
<title>LogoutComponent&#45;&gt;AuthModule</title>
<path fill="none" stroke="black" d="M2281,-122.11C2281,-122.11 2281,-140.99 2281,-140.99"/>
<polygon fill="black" stroke="black" points="2277.5,-140.99 2281,-150.99 2284.5,-140.99 2277.5,-140.99"/>
</g>
<!-- AuthRoutingModule -->
<g id="node19" class="node">
<title>AuthRoutingModule</title>
<polygon fill="#8dd3c7" stroke="black" points="2196.17,-122 2193.17,-126 2172.17,-126 2169.17,-122 2063.83,-122 2063.83,-86 2196.17,-86 2196.17,-122"/>
<text text-anchor="middle" x="2130" y="-99.8" font-family="Times,serif" font-size="14.00">AuthRoutingModule</text>
</g>
<!-- AuthRoutingModule&#45;&gt;AuthModule -->
<g id="edge16" class="edge">
<title>AuthRoutingModule&#45;&gt;AuthModule</title>
<path fill="none" stroke="black" d="M2130,-122.02C2130,-139.37 2130,-163 2130,-163 2130,-163 2227.32,-163 2227.32,-163"/>
<polygon fill="black" stroke="black" points="2227.32,-166.5 2237.32,-163 2227.32,-159.5 2227.32,-166.5"/>
</g>
<!-- GestionEnseignantsRoutingModule -->
<g id="node20" class="node">
<title>GestionEnseignantsRoutingModule</title>
<polygon fill="#8dd3c7" stroke="black" points="2729.87,-122 2726.87,-126 2705.87,-126 2702.87,-122 2514.13,-122 2514.13,-86 2729.87,-86 2729.87,-122"/>
<text text-anchor="middle" x="2622" y="-99.8" font-family="Times,serif" font-size="14.00">GestionEnseignantsRoutingModule</text>
</g>
<!-- GestionEnseignantsModule -->
<g id="node21" class="node">
<title>GestionEnseignantsModule</title>
<polygon fill="#8dd3c7" stroke="black" points="2707.25,-187 2704.25,-191 2683.25,-191 2680.25,-187 2536.75,-187 2536.75,-151 2707.25,-151 2707.25,-187"/>
<text text-anchor="middle" x="2622" y="-164.8" font-family="Times,serif" font-size="14.00">GestionEnseignantsModule</text>
</g>
<!-- GestionEnseignantsRoutingModule&#45;&gt;GestionEnseignantsModule -->
<g id="edge17" class="edge">
<title>GestionEnseignantsRoutingModule&#45;&gt;GestionEnseignantsModule</title>
<path fill="none" stroke="black" d="M2622,-122.11C2622,-122.11 2622,-140.99 2622,-140.99"/>
<polygon fill="black" stroke="black" points="2618.5,-140.99 2622,-150.99 2625.5,-140.99 2618.5,-140.99"/>
</g>
<!-- GestionEnseignantComponent -->
<g id="node22" class="node">
<title>GestionEnseignantComponent</title>
<polygon fill="#ffffb3" stroke="black" points="3540.59,-122 3353.41,-122 3353.41,-86 3540.59,-86 3540.59,-122"/>
<text text-anchor="middle" x="3447" y="-99.8" font-family="Times,serif" font-size="14.00">GestionEnseignantComponent</text>
</g>
<!-- PulicModule -->
<g id="node26" class="node">
<title>PulicModule</title>
<polygon fill="#8dd3c7" stroke="black" points="3183.33,-187 3180.33,-191 3159.33,-191 3156.33,-187 3094.67,-187 3094.67,-151 3183.33,-151 3183.33,-187"/>
<text text-anchor="middle" x="3139" y="-164.8" font-family="Times,serif" font-size="14.00">PulicModule</text>
</g>
<!-- GestionEnseignantComponent&#45;&gt;PulicModule -->
<g id="edge18" class="edge">
<title>GestionEnseignantComponent&#45;&gt;PulicModule</title>
<path fill="none" stroke="black" d="M3447,-122.27C3447,-140.56 3447,-166 3447,-166 3447,-166 3193.46,-166 3193.46,-166"/>
<polygon fill="black" stroke="black" points="3193.46,-162.5 3183.46,-166 3193.46,-169.5 3193.46,-162.5"/>
</g>
<!-- HomeComponent -->
<g id="node23" class="node">
<title>HomeComponent</title>
<polygon fill="#ffffb3" stroke="black" points="3335.55,-122 3220.45,-122 3220.45,-86 3335.55,-86 3335.55,-122"/>
<text text-anchor="middle" x="3278" y="-99.8" font-family="Times,serif" font-size="14.00">HomeComponent</text>
</g>
<!-- HomeComponent&#45;&gt;PulicModule -->
<g id="edge19" class="edge">
<title>HomeComponent&#45;&gt;PulicModule</title>
<path fill="none" stroke="black" d="M3278,-122.01C3278,-138.05 3278,-159 3278,-159 3278,-159 3193.36,-159 3193.36,-159"/>
<polygon fill="black" stroke="black" points="3193.36,-155.5 3183.36,-159 3193.36,-162.5 3193.36,-155.5"/>
</g>
<!-- PheaderComponent -->
<g id="node24" class="node">
<title>PheaderComponent</title>
<polygon fill="#ffffb3" stroke="black" points="3202.42,-122 3075.58,-122 3075.58,-86 3202.42,-86 3202.42,-122"/>
<text text-anchor="middle" x="3139" y="-99.8" font-family="Times,serif" font-size="14.00">PheaderComponent</text>
</g>
<!-- PheaderComponent&#45;&gt;PulicModule -->
<g id="edge20" class="edge">
<title>PheaderComponent&#45;&gt;PulicModule</title>
<path fill="none" stroke="black" d="M3139,-122.11C3139,-122.11 3139,-140.99 3139,-140.99"/>
<polygon fill="black" stroke="black" points="3135.5,-140.99 3139,-150.99 3142.5,-140.99 3135.5,-140.99"/>
</g>
<!-- PlayoutComponent -->
<g id="node25" class="node">
<title>PlayoutComponent</title>
<polygon fill="#ffffb3" stroke="black" points="3058.11,-122 2933.89,-122 2933.89,-86 3058.11,-86 3058.11,-122"/>
<text text-anchor="middle" x="2996" y="-99.8" font-family="Times,serif" font-size="14.00">PlayoutComponent</text>
</g>
<!-- PlayoutComponent&#45;&gt;PulicModule -->
<g id="edge21" class="edge">
<title>PlayoutComponent&#45;&gt;PulicModule</title>
<path fill="none" stroke="black" d="M2996,-122.02C2996,-139.37 2996,-163 2996,-163 2996,-163 3084.54,-163 3084.54,-163"/>
<polygon fill="black" stroke="black" points="3084.54,-166.5 3094.54,-163 3084.54,-159.5 3084.54,-166.5"/>
</g>
<!-- PublicRoutingModule -->
<g id="node27" class="node">
<title>PublicRoutingModule</title>
<polygon fill="#8dd3c7" stroke="black" points="2910.45,-122 2907.45,-126 2886.45,-126 2883.45,-122 2769.55,-122 2769.55,-86 2910.45,-86 2910.45,-122"/>
<text text-anchor="middle" x="2840" y="-99.8" font-family="Times,serif" font-size="14.00">PublicRoutingModule</text>
</g>
<!-- PublicRoutingModule&#45;&gt;PulicModule -->
<g id="edge22" class="edge">
<title>PublicRoutingModule&#45;&gt;PulicModule</title>
<path fill="none" stroke="black" d="M2840,-122.28C2840,-143.32 2840,-175 2840,-175 2840,-175 3084.56,-175 3084.56,-175"/>
<polygon fill="black" stroke="black" points="3084.56,-178.5 3094.56,-175 3084.56,-171.5 3084.56,-178.5"/>
</g>
<!-- UAddComponent -->
<g id="node28" class="node">
<title>UAddComponent</title>
<polygon fill="#ffffb3" stroke="black" points="4272.55,-122 4157.45,-122 4157.45,-86 4272.55,-86 4272.55,-122"/>
<text text-anchor="middle" x="4215" y="-99.8" font-family="Times,serif" font-size="14.00">UAddComponent</text>
</g>
<!-- UserModule -->
<g id="node32" class="node">
<title>UserModule</title>
<polygon fill="#8dd3c7" stroke="black" points="3978.98,-187 3975.98,-191 3954.98,-191 3951.98,-187 3893.02,-187 3893.02,-151 3978.98,-151 3978.98,-187"/>
<text text-anchor="middle" x="3936" y="-164.8" font-family="Times,serif" font-size="14.00">UserModule</text>
</g>
<!-- UAddComponent&#45;&gt;UserModule -->
<g id="edge23" class="edge">
<title>UAddComponent&#45;&gt;UserModule</title>
<path fill="none" stroke="black" d="M4215,-122.28C4215,-143.32 4215,-175 4215,-175 4215,-175 3988.98,-175 3988.98,-175"/>
<polygon fill="black" stroke="black" points="3988.98,-171.5 3978.98,-175 3988.98,-178.5 3988.98,-171.5"/>
</g>
<!-- UDeleteComponent -->
<g id="node29" class="node">
<title>UDeleteComponent</title>
<polygon fill="#ffffb3" stroke="black" points="4138.97,-122 4011.03,-122 4011.03,-86 4138.97,-86 4138.97,-122"/>
<text text-anchor="middle" x="4075" y="-99.8" font-family="Times,serif" font-size="14.00">UDeleteComponent</text>
</g>
<!-- UDeleteComponent&#45;&gt;UserModule -->
<g id="edge24" class="edge">
<title>UDeleteComponent&#45;&gt;UserModule</title>
<path fill="none" stroke="black" d="M4075,-122.02C4075,-139.37 4075,-163 4075,-163 4075,-163 3989.22,-163 3989.22,-163"/>
<polygon fill="black" stroke="black" points="3989.22,-159.5 3979.22,-163 3989.22,-166.5 3989.22,-159.5"/>
</g>
<!-- UEditComponent -->
<g id="node30" class="node">
<title>UEditComponent</title>
<polygon fill="#ffffb3" stroke="black" points="3993.27,-122 3878.73,-122 3878.73,-86 3993.27,-86 3993.27,-122"/>
<text text-anchor="middle" x="3936" y="-99.8" font-family="Times,serif" font-size="14.00">UEditComponent</text>
</g>
<!-- UEditComponent&#45;&gt;UserModule -->
<g id="edge25" class="edge">
<title>UEditComponent&#45;&gt;UserModule</title>
<path fill="none" stroke="black" d="M3936,-122.11C3936,-122.11 3936,-140.99 3936,-140.99"/>
<polygon fill="black" stroke="black" points="3932.5,-140.99 3936,-150.99 3939.5,-140.99 3932.5,-140.99"/>
</g>
<!-- UIndexComponent -->
<g id="node31" class="node">
<title>UIndexComponent</title>
<polygon fill="#ffffb3" stroke="black" points="3860.81,-122 3737.19,-122 3737.19,-86 3860.81,-86 3860.81,-122"/>
<text text-anchor="middle" x="3799" y="-99.8" font-family="Times,serif" font-size="14.00">UIndexComponent</text>
</g>
<!-- UIndexComponent&#45;&gt;UserModule -->
<g id="edge26" class="edge">
<title>UIndexComponent&#45;&gt;UserModule</title>
<path fill="none" stroke="black" d="M3799,-122.13C3799,-142.57 3799,-173 3799,-173 3799,-173 3882.65,-173 3882.65,-173"/>
<polygon fill="black" stroke="black" points="3882.65,-176.5 3892.65,-173 3882.65,-169.5 3882.65,-176.5"/>
</g>
<!-- UserRoutingModule -->
<g id="node33" class="node">
<title>UserRoutingModule</title>
<polygon fill="#8dd3c7" stroke="black" points="3712.59,-122 3709.59,-126 3688.59,-126 3685.59,-122 3581.41,-122 3581.41,-86 3712.59,-86 3712.59,-122"/>
<text text-anchor="middle" x="3647" y="-99.8" font-family="Times,serif" font-size="14.00">UserRoutingModule</text>
</g>
<!-- UserRoutingModule&#45;&gt;UserModule -->
<g id="edge27" class="edge">
<title>UserRoutingModule&#45;&gt;UserModule</title>
<path fill="none" stroke="black" d="M3647,-122.01C3647,-144.49 3647,-180 3647,-180 3647,-180 3882.73,-180 3882.73,-180"/>
<polygon fill="black" stroke="black" points="3882.73,-183.5 3892.73,-180 3882.73,-176.5 3882.73,-183.5"/>
</g>
</g>
</svg>
