<?xml version="1.0" encoding="UTF-8" standalone="no"?>
<!DOCTYPE svg PUBLIC "-//W3C//DTD SVG 1.1//EN"
 "http://www.w3.org/Graphics/SVG/1.1/DTD/svg11.dtd">
<!-- Generated by graphviz version 2.47.0 (20210316.0004)
 -->
<!-- Title: dependencies Pages: 1 -->
<svg width="827pt" height="211pt"
 viewBox="0.00 0.00 827.00 211.00" xmlns="http://www.w3.org/2000/svg" xmlns:xlink="http://www.w3.org/1999/xlink">
<g id="graph0" class="graph" transform="scale(1 1) rotate(0) translate(4 207)">
<title>dependencies</title>
<polygon fill="white" stroke="transparent" points="-4,4 -4,-207 823,-207 823,4 -4,4"/>
<text text-anchor="start" x="388.51" y="-42.4" font-family="Times-12" font-weight="bold" font-size="14.00">Legend</text>
<polygon fill="#ffffb3" stroke="transparent" points="175.5,-10 175.5,-30 195.5,-30 195.5,-10 175.5,-10"/>
<text text-anchor="start" x="199.13" y="-15.4" font-family="Times-12" font-size="14.00"> &#160;Declarations</text>
<polygon fill="#8dd3c7" stroke="transparent" points="288.5,-10 288.5,-30 308.5,-30 308.5,-10 288.5,-10"/>
<text text-anchor="start" x="312.23" y="-15.4" font-family="Times-12" font-size="14.00"> &#160;Module</text>
<polygon fill="#80b1d3" stroke="transparent" points="374.5,-10 374.5,-30 394.5,-30 394.5,-10 374.5,-10"/>
<text text-anchor="start" x="398.28" y="-15.4" font-family="Times-12" font-size="14.00"> &#160;Bootstrap</text>
<polygon fill="#fdb462" stroke="transparent" points="471.5,-10 471.5,-30 491.5,-30 491.5,-10 471.5,-10"/>
<text text-anchor="start" x="495.17" y="-15.4" font-family="Times-12" font-size="14.00"> &#160;Providers</text>
<polygon fill="#fb8072" stroke="transparent" points="567.5,-10 567.5,-30 587.5,-30 587.5,-10 567.5,-10"/>
<text text-anchor="start" x="591.23" y="-15.4" font-family="Times-12" font-size="14.00"> &#160;Exports</text>
<g id="clust1" class="cluster">
<title>cluster_PulicModule</title>
<polygon fill="none" stroke="black" stroke-dasharray="1,5" points="8,-70 8,-195 811,-195 811,-70 8,-70"/>
</g>
<g id="clust7" class="cluster">
<title>cluster_PulicModule_imports</title>
<polygon fill="none" stroke="black" points="647,-78 647,-130 803,-130 803,-78 647,-78"/>
</g>
<g id="clust2" class="cluster">
<title>cluster_PulicModule_declarations</title>
<polygon fill="none" stroke="black" points="16,-78 16,-130 639,-130 639,-78 16,-78"/>
</g>
<!-- GestionEnseignantComponent -->
<g id="node1" class="node">
<title>GestionEnseignantComponent</title>
<polygon fill="#ffffb3" stroke="black" points="630.59,-122 443.41,-122 443.41,-86 630.59,-86 630.59,-122"/>
<text text-anchor="middle" x="537" y="-99.8" font-family="Times,serif" font-size="14.00">GestionEnseignantComponent</text>
</g>
<!-- PulicModule -->
<g id="node5" class="node">
<title>PulicModule</title>
<polygon fill="#8dd3c7" stroke="black" points="412.33,-187 409.33,-191 388.33,-191 385.33,-187 323.67,-187 323.67,-151 412.33,-151 412.33,-187"/>
<text text-anchor="middle" x="368" y="-164.8" font-family="Times,serif" font-size="14.00">PulicModule</text>
</g>
<!-- GestionEnseignantComponent&#45;&gt;PulicModule -->
<g id="edge1" class="edge">
<title>GestionEnseignantComponent&#45;&gt;PulicModule</title>
<path fill="none" stroke="black" d="M537,-122.02C537,-139.37 537,-163 537,-163 537,-163 422.4,-163 422.4,-163"/>
<polygon fill="black" stroke="black" points="422.4,-159.5 412.4,-163 422.4,-166.5 422.4,-159.5"/>
</g>
<!-- HomeComponent -->
<g id="node2" class="node">
<title>HomeComponent</title>
<polygon fill="#ffffb3" stroke="black" points="425.55,-122 310.45,-122 310.45,-86 425.55,-86 425.55,-122"/>
<text text-anchor="middle" x="368" y="-99.8" font-family="Times,serif" font-size="14.00">HomeComponent</text>
</g>
<!-- HomeComponent&#45;&gt;PulicModule -->
<g id="edge2" class="edge">
<title>HomeComponent&#45;&gt;PulicModule</title>
<path fill="none" stroke="black" d="M368,-122.11C368,-122.11 368,-140.99 368,-140.99"/>
<polygon fill="black" stroke="black" points="364.5,-140.99 368,-150.99 371.5,-140.99 364.5,-140.99"/>
</g>
<!-- PheaderComponent -->
<g id="node3" class="node">
<title>PheaderComponent</title>
<polygon fill="#ffffb3" stroke="black" points="292.42,-122 165.58,-122 165.58,-86 292.42,-86 292.42,-122"/>
<text text-anchor="middle" x="229" y="-99.8" font-family="Times,serif" font-size="14.00">PheaderComponent</text>
</g>
<!-- PheaderComponent&#45;&gt;PulicModule -->
<g id="edge3" class="edge">
<title>PheaderComponent&#45;&gt;PulicModule</title>
<path fill="none" stroke="black" d="M229,-122.02C229,-139.37 229,-163 229,-163 229,-163 313.64,-163 313.64,-163"/>
<polygon fill="black" stroke="black" points="313.64,-166.5 323.64,-163 313.64,-159.5 313.64,-166.5"/>
</g>
<!-- PlayoutComponent -->
<g id="node4" class="node">
<title>PlayoutComponent</title>
<polygon fill="#ffffb3" stroke="black" points="148.11,-122 23.89,-122 23.89,-86 148.11,-86 148.11,-122"/>
<text text-anchor="middle" x="86" y="-99.8" font-family="Times,serif" font-size="14.00">PlayoutComponent</text>
</g>
<!-- PlayoutComponent&#45;&gt;PulicModule -->
<g id="edge4" class="edge">
<title>PlayoutComponent&#45;&gt;PulicModule</title>
<path fill="none" stroke="black" d="M86,-122.28C86,-143.32 86,-175 86,-175 86,-175 313.63,-175 313.63,-175"/>
<polygon fill="black" stroke="black" points="313.63,-178.5 323.63,-175 313.63,-171.5 313.63,-178.5"/>
</g>
<!-- PublicRoutingModule -->
<g id="node6" class="node">
<title>PublicRoutingModule</title>
<polygon fill="#8dd3c7" stroke="black" points="795.45,-122 792.45,-126 771.45,-126 768.45,-122 654.55,-122 654.55,-86 795.45,-86 795.45,-122"/>
<text text-anchor="middle" x="725" y="-99.8" font-family="Times,serif" font-size="14.00">PublicRoutingModule</text>
</g>
<!-- PublicRoutingModule&#45;&gt;PulicModule -->
<g id="edge5" class="edge">
<title>PublicRoutingModule&#45;&gt;PulicModule</title>
<path fill="none" stroke="black" d="M725,-122.28C725,-143.32 725,-175 725,-175 725,-175 422.49,-175 422.49,-175"/>
<polygon fill="black" stroke="black" points="422.49,-171.5 412.49,-175 422.49,-178.5 422.49,-171.5"/>
</g>
</g>
</svg>
